<svg width="677" height="677" viewBox="0 0 677 677" fill="none" xmlns="http://www.w3.org/2000/svg">
<path fill-rule="evenodd" clip-rule="evenodd" d="M65.4381 138.413L129.594 96.6485C128.484 87.7748 133.368 70.9147 161.781 74.4642C197.298 78.9011 207.287 77.7919 205.067 64.4813C204.199 59.274 201.292 49.9923 198.274 40.3556C197.357 37.4277 196.43 34.467 195.546 31.5778C238.975 11.3159 287.416 0 338.5 0C375.861 0 411.808 6.05273 445.414 17.2311C442.12 23.0337 435.884 31.507 424.828 43.4062C411.963 57.2519 404.172 63.3821 399.192 67.3001C393.002 72.1707 391.156 73.6226 389.311 82.2287C387.059 92.729 416.778 81.4222 440.722 72.3124C452.189 67.9495 462.332 64.0905 467.004 63.3721C470.774 62.7925 475.453 61.7585 480.487 60.6461C494.72 57.501 511.79 53.729 519.169 57.826C526.867 62.0996 523.36 68.3492 519.315 75.5596C518.111 77.7064 516.858 79.9384 515.84 82.2287C511.4 92.2117 509.18 103.304 530.268 101.085C545.935 99.4372 568.953 101.462 584.759 106.251C641.946 166.866 677 248.589 677 338.5C677 525.448 525.448 677 338.5 677C151.552 677 0 525.448 0 338.5C0 263.643 24.2983 194.462 65.4381 138.413Z" fill="#DEF3EE"/>
<path d="M329.94 413.3C319.798 418.371 309.656 412.877 305.852 409.496L299.513 394.283L307.12 379.069L329.94 413.3Z" fill="#F7E2E3"/>
<path d="M312.191 438.655C304.077 436.627 301.204 415.835 300.781 405.693C304.838 415.835 321.911 415.835 329.94 414.567C338.392 420.484 355.296 432.57 355.296 433.584C355.296 434.852 322.333 441.191 312.191 438.655Z" fill="#230D13"/>
<path d="M210.768 389.212V370.195C211.782 347.882 244.998 368.504 261.48 381.605C254.38 397.833 224.714 393.438 210.768 389.212Z" fill="#71C9CE"/>
<path d="M212.036 382.873H206.965V352.446L304.584 379.069L305.852 413.3H291.907L288.103 401.889C285.06 374.505 264.015 377.801 253.873 382.873L251.337 376.534L212.036 365.124V382.873Z" fill="#A2EFE3" stroke="#A2EFE3"/>
<path d="M383.187 474.154L308.388 382.873L463.058 381.605L521.377 465.279V474.154L383.187 483.028V474.154Z" fill="#71C9CE"/>
<path d="M328.287 393.015L319.798 382.873H452.971L457.987 390.479L328.287 393.015Z" fill="white"/>
<path d="M328.287 393.015L319.798 382.873H452.971L457.987 390.479L328.287 393.015Z" fill="white"/>
<path d="M340.083 408.228L329.94 396.818L460.523 394.283L469.397 405.693L340.083 408.228Z" fill="white"/>
<path d="M340.083 408.228L329.94 396.818L460.523 394.283L469.397 405.693L340.083 408.228Z" fill="white"/>
<path d="M352.76 425.977L341.35 412.032L471.933 409.496L482.075 423.442L352.76 425.977Z" fill="white"/>
<path d="M352.76 425.977L341.35 412.032L471.933 409.496L482.075 423.442L352.76 425.977Z" fill="white"/>
<path d="M373.045 447.53L355.296 428.513L483.343 424.71L497.289 441.191L373.045 447.53Z" fill="white"/>
<path d="M373.045 447.53L355.296 428.513L483.343 424.71L497.289 441.191L373.045 447.53Z" fill="white"/>
<path d="M386.991 466.547L375.581 451.333L499.824 446.262L511.234 461.476L386.991 466.547Z" fill="white"/>
<path d="M386.991 466.547L375.581 451.333L499.824 446.262L511.234 461.476L386.991 466.547Z" fill="white"/>
<rect x="312.191" y="205.382" width="30.427" height="172.419" fill="#1E3E40"/>
<path d="M461.79 205.382H342.618V347.375L446.577 376.534H461.79V205.382Z" fill="#58A2A6"/>
<path d="M312.191 294.127H324.869L362.903 291.592L324.869 290.324H312.191V294.127Z" fill="#CB9897"/>
<path d="M362.903 291.592L324.869 294.127V363.856L362.903 352.446V291.592Z" fill="#CB9897"/>
<path d="M324.869 294.127H312.191V356.249L324.869 365.124V294.127Z" fill="#A367A0"/>
<path d="M342.618 347.375V377.801H450.38L342.618 347.375Z" fill="#005F51"/>
<path d="M342.618 322.191H355.296L393.33 320.386L355.296 319.483H342.618V322.191Z" fill="#CB9897"/>
<path d="M393.33 320.386L355.296 322.191V371.828L393.33 363.705V320.386Z" fill="#CB9897"/>
<path d="M355.296 322.191H342.618V366.413L355.296 372.73V322.191Z" fill="#A367A0"/>
<path d="M208.232 348.642V220.596L303.317 207.918V373.998L208.232 348.642Z" fill="#71C9CE"/>
<path d="M201.893 216.792V209.185L304.584 193.972V204.114L201.893 216.792Z" fill="#1E3E40"/>
<rect x="304.584" y="192.704" width="7.60674" height="190.169" fill="#71C9CE"/>
<rect x="312.191" y="192.704" width="149.599" height="10.1423" fill="#71C9CE"/>
<rect x="461.791" y="192.704" width="7.60674" height="185.097" fill="#71C9CE"/>
<rect x="312.191" y="377.801" width="157.206" height="5.07116" fill="#71C9CE"/>
<rect x="312.191" y="195.24" width="15.2135" height="7.60674" fill="#7A76B7"/>
<rect x="446.577" y="195.24" width="15.2135" height="7.60674" fill="#7A76B7"/>
<path d="M298.246 420.906C296.978 446.262 298.246 456.404 274.158 460.208C253.873 461.476 251.337 443.312 251.337 420.906C251.337 398.501 261.554 380.337 274.158 380.337C286.761 380.337 299.45 396.818 298.246 420.906Z" fill="#230D13"/>
<ellipse cx="269.086" cy="420.906" rx="15.2135" ry="35.4981" fill="#68424C"/>
<ellipse cx="269.086" cy="419.639" rx="10.1423" ry="21.5524" fill="white"/>
<path d="M192.352 395.933C191.547 412.019 192.352 418.454 177.07 420.867C164.201 421.671 162.592 410.148 162.592 395.933C162.592 381.718 169.074 370.195 177.07 370.195C185.065 370.195 193.116 380.651 192.352 395.933Z" fill="#230D13"/>
<ellipse cx="173.852" cy="395.933" rx="9.65179" ry="22.5208" fill="#68424C"/>
<ellipse cx="173.852" cy="395.129" rx="6.43453" ry="13.6734" fill="white"/>
<path d="M177.805 367.659C167.663 364.616 161.747 376.534 160.056 382.873C143.828 362.588 175.27 322.864 193.019 305.537L154.985 309.341C150.928 266.743 187.102 244.261 205.697 238.345V349.91C206.542 360.898 207.218 384.14 203.161 389.212C199.104 394.283 194.709 387.944 193.019 384.14C192.174 379.914 187.948 370.702 177.805 367.659Z" fill="#71C9CE"/>
<path d="M198.09 296.663L161.324 303.002C165.381 271.561 187.525 254.403 198.09 249.755V296.663Z" fill="#D9FFF8" stroke="#2C5658"/>
<path d="M175.452 503.18C176.516 503.18 177.384 503.53 178.056 504.23C178.756 504.93 179.106 505.84 179.106 506.96V529.43C179.106 530.578 178.77 531.502 178.098 532.202C177.426 532.902 176.558 533.252 175.494 533.252C174.234 533.252 173.282 532.832 172.638 531.992L159.87 516.074V529.43C159.87 530.578 159.548 531.502 158.904 532.202C158.26 532.902 157.392 533.252 156.3 533.252C155.236 533.252 154.368 532.902 153.696 532.202C153.024 531.502 152.688 530.578 152.688 529.43V506.96C152.688 505.84 153.024 504.93 153.696 504.23C154.368 503.53 155.236 503.18 156.3 503.18C157.504 503.18 158.442 503.6 159.114 504.44L171.882 520.316V506.96C171.882 505.812 172.204 504.902 172.848 504.23C173.52 503.53 174.388 503.18 175.452 503.18ZM194.387 533.336C192.119 533.336 190.117 532.902 188.381 532.034C186.673 531.138 185.343 529.878 184.391 528.254C183.467 526.63 183.005 524.726 183.005 522.542C183.005 520.358 183.467 518.468 184.391 516.872C185.343 515.248 186.673 514.002 188.381 513.134C190.089 512.266 192.091 511.832 194.387 511.832C196.683 511.832 198.685 512.266 200.393 513.134C202.101 514.002 203.417 515.248 204.341 516.872C205.293 518.468 205.769 520.358 205.769 522.542C205.769 524.726 205.293 526.63 204.341 528.254C203.417 529.878 202.101 531.138 200.393 532.034C198.685 532.902 196.683 533.336 194.387 533.336ZM194.387 527.75C197.047 527.75 198.377 526.014 198.377 522.542C198.377 519.07 197.047 517.334 194.387 517.334C191.727 517.334 190.397 519.07 190.397 522.542C190.397 526.014 191.727 527.75 194.387 527.75ZM227.215 503.18C228.335 503.18 229.245 503.502 229.945 504.146C230.673 504.762 231.037 505.56 231.037 506.54V529.808C231.037 530.872 230.701 531.712 230.029 532.328C229.357 532.944 228.461 533.252 227.341 533.252C226.305 533.252 225.451 532.986 224.779 532.454C224.135 531.894 223.771 531.138 223.687 530.186C223.099 531.166 222.231 531.936 221.083 532.496C219.963 533.056 218.717 533.336 217.345 533.336C215.581 533.336 213.999 532.888 212.599 531.992C211.227 531.068 210.149 529.78 209.365 528.128C208.581 526.476 208.189 524.586 208.189 522.458C208.189 520.33 208.567 518.468 209.323 516.872C210.107 515.248 211.185 514.002 212.557 513.134C213.957 512.266 215.553 511.832 217.345 511.832C218.661 511.832 219.865 512.098 220.957 512.63C222.077 513.162 222.945 513.876 223.561 514.772V506.414C223.561 505.434 223.883 504.65 224.527 504.062C225.199 503.474 226.095 503.18 227.215 503.18ZM219.613 527.75C220.929 527.75 221.937 527.302 222.637 526.406C223.337 525.51 223.687 524.222 223.687 522.542C223.687 520.89 223.337 519.63 222.637 518.762C221.937 517.866 220.929 517.418 219.613 517.418C218.325 517.418 217.331 517.852 216.631 518.72C215.931 519.588 215.581 520.834 215.581 522.458C215.581 524.138 215.931 525.44 216.631 526.364C217.359 527.288 218.353 527.75 219.613 527.75ZM252.205 526.364C252.849 526.364 253.367 526.616 253.759 527.12C254.179 527.624 254.389 528.282 254.389 529.094C254.389 530.214 253.843 531.068 252.751 531.656C251.799 532.132 250.665 532.538 249.349 532.874C248.061 533.182 246.871 533.336 245.779 533.336C243.483 533.336 241.481 532.902 239.773 532.034C238.065 531.166 236.749 529.92 235.825 528.296C234.901 526.672 234.439 524.768 234.439 522.584C234.439 520.512 234.873 518.664 235.741 517.04C236.637 515.388 237.869 514.114 239.437 513.218C241.033 512.294 242.825 511.832 244.813 511.832C246.745 511.832 248.439 512.252 249.895 513.092C251.351 513.932 252.471 515.122 253.255 516.662C254.067 518.202 254.473 520.008 254.473 522.08C254.473 522.724 254.319 523.228 254.011 523.592C253.731 523.928 253.311 524.096 252.751 524.096H241.663C241.859 525.44 242.293 526.406 242.965 526.994C243.637 527.582 244.631 527.876 245.947 527.876C246.647 527.876 247.291 527.806 247.879 527.666C248.467 527.498 249.125 527.274 249.853 526.994C250.273 526.826 250.679 526.686 251.071 526.574C251.491 526.434 251.869 526.364 252.205 526.364ZM245.023 516.872C244.043 516.872 243.259 517.194 242.671 517.838C242.083 518.454 241.733 519.364 241.621 520.568H248.215C248.047 518.104 246.983 516.872 245.023 516.872ZM296.695 503.18C297.759 503.18 298.627 503.53 299.299 504.23C299.971 504.93 300.307 505.84 300.307 506.96V529.808C300.307 530.872 299.999 531.712 299.383 532.328C298.767 532.944 297.955 533.252 296.947 533.252C295.967 533.252 295.155 532.944 294.511 532.328C293.895 531.712 293.587 530.872 293.587 529.808V517.46L288.799 526.28C288.323 527.176 287.819 527.82 287.287 528.212C286.755 528.576 286.125 528.758 285.397 528.758C284.669 528.758 284.039 528.576 283.507 528.212C282.975 527.82 282.471 527.176 281.995 526.28L277.249 517.712V529.808C277.249 530.844 276.927 531.684 276.283 532.328C275.667 532.944 274.855 533.252 273.847 533.252C272.867 533.252 272.055 532.944 271.411 532.328C270.795 531.712 270.487 530.872 270.487 529.808V506.96C270.487 505.84 270.823 504.93 271.495 504.23C272.195 503.53 273.077 503.18 274.141 503.18C274.897 503.18 275.583 503.404 276.199 503.852C276.815 504.272 277.333 504.888 277.753 505.7L285.481 520.232L293.167 505.7C294.035 504.02 295.211 503.18 296.695 503.18ZM314.872 511.832C318.064 511.832 320.416 512.602 321.928 514.142C323.468 515.654 324.238 517.964 324.238 521.072V529.85C324.238 530.914 323.916 531.754 323.272 532.37C322.656 532.958 321.788 533.252 320.668 533.252C319.688 533.252 318.876 532.972 318.232 532.412C317.616 531.852 317.28 531.096 317.224 530.144C316.832 531.152 316.174 531.936 315.25 532.496C314.326 533.056 313.22 533.336 311.932 533.336C310.504 533.336 309.216 533.056 308.068 532.496C306.92 531.908 306.01 531.11 305.338 530.102C304.694 529.066 304.372 527.904 304.372 526.616C304.372 525.132 304.75 523.956 305.506 523.088C306.29 522.192 307.522 521.548 309.202 521.156C310.882 520.764 313.15 520.568 316.006 520.568H317.14V520.064C317.14 519.084 316.916 518.384 316.468 517.964C316.02 517.516 315.264 517.292 314.2 517.292C313.052 517.292 311.372 517.684 309.16 518.468C308.516 518.692 307.97 518.804 307.522 518.804C306.822 518.804 306.262 518.552 305.842 518.048C305.422 517.544 305.212 516.886 305.212 516.074C305.212 515.458 305.338 514.954 305.59 514.562C305.842 514.17 306.248 513.82 306.808 513.512C307.788 513.008 309.02 512.602 310.504 512.294C311.988 511.986 313.444 511.832 314.872 511.832ZM313.696 528.338C314.704 528.338 315.53 527.988 316.174 527.288C316.818 526.56 317.14 525.636 317.14 524.516V524.012H316.468C314.676 524.012 313.402 524.18 312.646 524.516C311.89 524.824 311.512 525.356 311.512 526.112C311.512 526.756 311.708 527.288 312.1 527.708C312.52 528.128 313.052 528.338 313.696 528.338ZM342.33 511.832C344.794 511.832 346.628 512.574 347.832 514.058C349.036 515.514 349.638 517.74 349.638 520.736V529.808C349.638 530.872 349.302 531.712 348.63 532.328C347.958 532.944 347.048 533.252 345.9 533.252C344.752 533.252 343.842 532.944 343.17 532.328C342.498 531.712 342.162 530.872 342.162 529.808V521.072C342.162 519.84 341.938 518.944 341.49 518.384C341.07 517.824 340.426 517.544 339.558 517.544C338.438 517.544 337.542 517.908 336.87 518.636C336.226 519.336 335.904 520.288 335.904 521.492V529.808C335.904 530.872 335.568 531.712 334.896 532.328C334.224 532.944 333.314 533.252 332.166 533.252C331.018 533.252 330.108 532.944 329.436 532.328C328.764 531.712 328.428 530.872 328.428 529.808V515.276C328.428 514.296 328.778 513.498 329.478 512.882C330.178 512.238 331.088 511.916 332.208 511.916C333.272 511.916 334.112 512.21 334.728 512.798C335.372 513.386 335.694 514.156 335.694 515.108C336.422 514.044 337.36 513.232 338.508 512.672C339.656 512.112 340.93 511.832 342.33 511.832ZM363.476 511.832C366.668 511.832 369.02 512.602 370.532 514.142C372.072 515.654 372.842 517.964 372.842 521.072V529.85C372.842 530.914 372.52 531.754 371.876 532.37C371.26 532.958 370.392 533.252 369.272 533.252C368.292 533.252 367.48 532.972 366.836 532.412C366.22 531.852 365.884 531.096 365.828 530.144C365.436 531.152 364.778 531.936 363.854 532.496C362.93 533.056 361.824 533.336 360.536 533.336C359.108 533.336 357.82 533.056 356.672 532.496C355.524 531.908 354.614 531.11 353.942 530.102C353.298 529.066 352.976 527.904 352.976 526.616C352.976 525.132 353.354 523.956 354.11 523.088C354.894 522.192 356.126 521.548 357.806 521.156C359.486 520.764 361.754 520.568 364.61 520.568H365.744V520.064C365.744 519.084 365.52 518.384 365.072 517.964C364.624 517.516 363.868 517.292 362.804 517.292C361.656 517.292 359.976 517.684 357.764 518.468C357.12 518.692 356.574 518.804 356.126 518.804C355.426 518.804 354.866 518.552 354.446 518.048C354.026 517.544 353.816 516.886 353.816 516.074C353.816 515.458 353.942 514.954 354.194 514.562C354.446 514.17 354.852 513.82 355.412 513.512C356.392 513.008 357.624 512.602 359.108 512.294C360.592 511.986 362.048 511.832 363.476 511.832ZM362.3 528.338C363.308 528.338 364.134 527.988 364.778 527.288C365.422 526.56 365.744 525.636 365.744 524.516V524.012H365.072C363.28 524.012 362.006 524.18 361.25 524.516C360.494 524.824 360.116 525.356 360.116 526.112C360.116 526.756 360.312 527.288 360.704 527.708C361.124 528.128 361.656 528.338 362.3 528.338ZM395.386 511.916C396.506 511.916 397.402 512.238 398.074 512.882C398.746 513.498 399.082 514.324 399.082 515.36V530.48C399.082 533.896 398.046 536.486 395.974 538.25C393.93 540.014 390.92 540.896 386.944 540.896C385.404 540.896 383.948 540.756 382.576 540.476C381.204 540.196 380.042 539.79 379.09 539.258C378.586 538.978 378.18 538.614 377.872 538.166C377.592 537.718 377.452 537.214 377.452 536.654C377.452 535.842 377.648 535.184 378.04 534.68C378.46 534.176 378.992 533.924 379.636 533.924C380.14 533.924 381.05 534.134 382.366 534.554C383.234 534.834 384.004 535.044 384.676 535.184C385.348 535.352 386.034 535.436 386.734 535.436C388.442 535.436 389.688 535.072 390.472 534.344C391.284 533.644 391.69 532.524 391.69 530.984V529.388C391.074 530.312 390.192 531.054 389.044 531.614C387.896 532.146 386.65 532.412 385.306 532.412C383.514 532.412 381.918 531.992 380.518 531.152C379.118 530.312 378.026 529.122 377.242 527.582C376.458 526.014 376.066 524.208 376.066 522.164C376.066 520.12 376.458 518.314 377.242 516.746C378.026 515.178 379.118 513.974 380.518 513.134C381.918 512.266 383.514 511.832 385.306 511.832C386.678 511.832 387.938 512.112 389.086 512.672C390.234 513.232 391.116 514.002 391.732 514.982C391.788 514.03 392.138 513.288 392.782 512.756C393.454 512.196 394.322 511.916 395.386 511.916ZM387.574 526.826C388.89 526.826 389.912 526.42 390.64 525.608C391.368 524.796 391.732 523.648 391.732 522.164C391.732 520.68 391.368 519.518 390.64 518.678C389.912 517.838 388.89 517.418 387.574 517.418C386.286 517.418 385.278 517.838 384.55 518.678C383.822 519.49 383.458 520.652 383.458 522.164C383.458 523.62 383.822 524.768 384.55 525.608C385.306 526.42 386.314 526.826 387.574 526.826ZM420.246 526.364C420.89 526.364 421.408 526.616 421.8 527.12C422.22 527.624 422.43 528.282 422.43 529.094C422.43 530.214 421.884 531.068 420.792 531.656C419.84 532.132 418.706 532.538 417.39 532.874C416.102 533.182 414.912 533.336 413.82 533.336C411.524 533.336 409.522 532.902 407.814 532.034C406.106 531.166 404.79 529.92 403.866 528.296C402.942 526.672 402.48 524.768 402.48 522.584C402.48 520.512 402.914 518.664 403.782 517.04C404.678 515.388 405.91 514.114 407.478 513.218C409.074 512.294 410.866 511.832 412.854 511.832C414.786 511.832 416.48 512.252 417.936 513.092C419.392 513.932 420.512 515.122 421.296 516.662C422.108 518.202 422.514 520.008 422.514 522.08C422.514 522.724 422.36 523.228 422.052 523.592C421.772 523.928 421.352 524.096 420.792 524.096H409.704C409.9 525.44 410.334 526.406 411.006 526.994C411.678 527.582 412.672 527.876 413.988 527.876C414.688 527.876 415.332 527.806 415.92 527.666C416.508 527.498 417.166 527.274 417.894 526.994C418.314 526.826 418.72 526.686 419.112 526.574C419.532 526.434 419.91 526.364 420.246 526.364ZM413.064 516.872C412.084 516.872 411.3 517.194 410.712 517.838C410.124 518.454 409.774 519.364 409.662 520.568H416.256C416.088 518.104 415.024 516.872 413.064 516.872ZM452.298 511.832C454.566 511.832 456.316 512.518 457.548 513.89C458.78 515.234 459.396 517.516 459.396 520.736V529.808C459.396 530.956 459.032 531.824 458.304 532.412C457.604 532.972 456.722 533.252 455.658 533.252C454.594 533.252 453.698 532.972 452.97 532.412C452.27 531.824 451.92 530.956 451.92 529.808V520.568C451.92 519.448 451.724 518.664 451.332 518.216C450.94 517.768 450.366 517.544 449.61 517.544C448.63 517.544 447.846 517.894 447.258 518.594C446.67 519.294 446.376 520.26 446.376 521.492V529.808C446.376 530.956 446.026 531.824 445.326 532.412C444.626 532.972 443.73 533.252 442.638 533.252C441.574 533.252 440.678 532.972 439.95 532.412C439.25 531.824 438.9 530.956 438.9 529.808V520.568C438.9 519.448 438.704 518.664 438.312 518.216C437.92 517.768 437.346 517.544 436.59 517.544C435.61 517.544 434.826 517.894 434.238 518.594C433.678 519.294 433.398 520.26 433.398 521.492V529.808C433.398 530.956 433.034 531.824 432.306 532.412C431.606 532.972 430.724 533.252 429.66 533.252C428.596 533.252 427.7 532.972 426.972 532.412C426.272 531.824 425.922 530.956 425.922 529.808V515.276C425.922 514.184 426.286 513.358 427.014 512.798C427.77 512.21 428.666 511.916 429.702 511.916C430.682 511.916 431.494 512.182 432.138 512.714C432.81 513.218 433.16 513.96 433.188 514.94C434.56 512.868 436.66 511.832 439.488 511.832C442.484 511.832 444.486 513.05 445.494 515.486C446.194 514.366 447.132 513.484 448.308 512.84C449.484 512.168 450.814 511.832 452.298 511.832ZM480.416 526.364C481.06 526.364 481.578 526.616 481.97 527.12C482.39 527.624 482.6 528.282 482.6 529.094C482.6 530.214 482.054 531.068 480.962 531.656C480.01 532.132 478.876 532.538 477.56 532.874C476.272 533.182 475.082 533.336 473.99 533.336C471.694 533.336 469.692 532.902 467.984 532.034C466.276 531.166 464.96 529.92 464.036 528.296C463.112 526.672 462.65 524.768 462.65 522.584C462.65 520.512 463.084 518.664 463.952 517.04C464.848 515.388 466.08 514.114 467.648 513.218C469.244 512.294 471.036 511.832 473.024 511.832C474.956 511.832 476.65 512.252 478.106 513.092C479.562 513.932 480.682 515.122 481.466 516.662C482.278 518.202 482.684 520.008 482.684 522.08C482.684 522.724 482.53 523.228 482.222 523.592C481.942 523.928 481.522 524.096 480.962 524.096H469.874C470.07 525.44 470.504 526.406 471.176 526.994C471.848 527.582 472.842 527.876 474.158 527.876C474.858 527.876 475.502 527.806 476.09 527.666C476.678 527.498 477.336 527.274 478.064 526.994C478.484 526.826 478.89 526.686 479.282 526.574C479.702 526.434 480.08 526.364 480.416 526.364ZM473.234 516.872C472.254 516.872 471.47 517.194 470.882 517.838C470.294 518.454 469.944 519.364 469.832 520.568H476.426C476.258 518.104 475.194 516.872 473.234 516.872ZM499.994 511.832C502.458 511.832 504.292 512.574 505.496 514.058C506.7 515.514 507.302 517.74 507.302 520.736V529.808C507.302 530.872 506.966 531.712 506.294 532.328C505.622 532.944 504.712 533.252 503.564 533.252C502.416 533.252 501.506 532.944 500.834 532.328C500.162 531.712 499.826 530.872 499.826 529.808V521.072C499.826 519.84 499.602 518.944 499.154 518.384C498.734 517.824 498.09 517.544 497.222 517.544C496.102 517.544 495.206 517.908 494.534 518.636C493.89 519.336 493.568 520.288 493.568 521.492V529.808C493.568 530.872 493.232 531.712 492.56 532.328C491.888 532.944 490.978 533.252 489.83 533.252C488.682 533.252 487.772 532.944 487.1 532.328C486.428 531.712 486.092 530.872 486.092 529.808V515.276C486.092 514.296 486.442 513.498 487.142 512.882C487.842 512.238 488.752 511.916 489.872 511.916C490.936 511.916 491.776 512.21 492.392 512.798C493.036 513.386 493.358 514.156 493.358 515.108C494.086 514.044 495.024 513.232 496.172 512.672C497.32 512.112 498.594 511.832 499.994 511.832ZM523.744 527.918C525.62 528.03 526.558 528.87 526.558 530.438C526.558 531.418 526.18 532.146 525.424 532.622C524.668 533.098 523.59 533.294 522.19 533.21L521.014 533.126C518.494 532.93 516.576 532.174 515.26 530.858C513.972 529.514 513.328 527.652 513.328 525.272V517.838H512.11C509.87 517.838 508.75 516.914 508.75 515.066C508.75 513.246 509.87 512.336 512.11 512.336H513.328V509.606C513.328 508.542 513.664 507.702 514.336 507.086C515.008 506.442 515.918 506.12 517.066 506.12C518.214 506.12 519.124 506.442 519.796 507.086C520.468 507.702 520.804 508.542 520.804 509.606V512.336H523.114C525.354 512.336 526.474 513.246 526.474 515.066C526.474 516.914 525.354 517.838 523.114 517.838H520.804V525.902C520.804 526.434 520.958 526.882 521.266 527.246C521.602 527.61 522.022 527.806 522.526 527.834L523.744 527.918Z" fill="#68424C"/>
</svg>
