<svg width="232" height="57" viewBox="0 0 232 57" fill="none" xmlns="http://www.w3.org/2000/svg">
<path d="M11.748 33.2285C11.9629 32.125 11.3672 31.2705 9.96094 30.665L7.55859 29.6689C4.18945 28.1553 2.58789 26.0947 2.75391 23.4873C2.82227 22.2959 3.23242 21.2363 3.98438 20.3086C4.73633 19.3711 5.77637 18.6436 7.10449 18.126C8.43262 17.6084 9.88281 17.3594 11.4551 17.3789C13.5645 17.418 15.2588 18.0332 16.5381 19.2246C17.8271 20.416 18.4619 22.0127 18.4424 24.0146H13.4619C13.4912 23.1943 13.3154 22.54 12.9346 22.0518C12.5635 21.5537 11.9482 21.2949 11.0889 21.2754C10.249 21.2559 9.50684 21.4512 8.8623 21.8613C8.21777 22.2715 7.83691 22.8232 7.71973 23.5166C7.53418 24.4932 8.25684 25.2939 9.8877 25.9189C11.5283 26.5439 12.7197 27.0811 13.4619 27.5303C15.7959 28.9268 16.8896 30.8115 16.7432 33.1846C16.665 34.415 16.2695 35.4941 15.5566 36.4219C14.8438 37.3496 13.8525 38.0674 12.583 38.5752C11.3232 39.083 9.90723 39.3271 8.33496 39.3076C7.18262 39.2881 6.11328 39.1074 5.12695 38.7656C4.14062 38.4238 3.2959 37.9258 2.59277 37.2715C1.16699 35.9531 0.483398 34.2197 0.541992 32.0713L5.56641 32.0859C5.50781 33.1797 5.71777 34.0098 6.19629 34.5762C6.6748 35.1328 7.48047 35.4111 8.61328 35.4111C9.45312 35.4111 10.1514 35.2207 10.708 34.8398C11.2744 34.4492 11.6211 33.9121 11.748 33.2285ZM27.9785 37.2715C26.7969 38.668 25.3711 39.3467 23.7012 39.3076C22.1484 39.2881 20.9766 38.7461 20.1855 37.6816C19.4043 36.6172 19.1016 35.1914 19.2773 33.4043L20.9912 23.1504H25.8105L24.0674 33.4629C24.0381 33.7461 24.0381 34.0049 24.0674 34.2393C24.1357 35.04 24.6094 35.4551 25.4883 35.4844C26.5039 35.5234 27.3682 35.123 28.0811 34.2832L30.0439 23.1504H34.8926L32.1387 39H27.6562L27.9785 37.2715ZM35.5518 31.0459C35.7373 29.4541 36.1719 28.0137 36.8555 26.7246C37.5488 25.4355 38.4131 24.4639 39.4482 23.8096C40.4834 23.1455 41.6553 22.8232 42.9639 22.8428C44.5557 22.8818 45.7568 23.4531 46.5674 24.5566L47.0801 23.1357L51.5332 23.1504L48.9404 38.3848C48.6475 40.5332 47.7051 42.2275 46.1133 43.4678C44.5215 44.708 42.5391 45.2988 40.166 45.2402C39.1113 45.2207 38.0908 45.0107 37.1045 44.6104C36.1182 44.21 35.2734 43.6045 34.5703 42.7939L36.8555 39.9521C37.7051 41.0264 38.8086 41.5781 40.166 41.6074C42.3047 41.6465 43.6621 40.5088 44.2383 38.1943L44.3555 37.7109C43.2617 38.7852 42.0557 39.3125 40.7373 39.293C39.7217 39.2832 38.8281 39.0293 38.0566 38.5312C37.2852 38.0234 36.6797 37.2959 36.2402 36.3486C35.8008 35.4014 35.5518 34.3467 35.4932 33.1846C35.4541 32.5986 35.4736 31.8857 35.5518 31.0459ZM40.3125 32.6133C40.3125 33.5117 40.4736 34.21 40.7959 34.708C41.1182 35.2061 41.5869 35.4648 42.2021 35.4844C43.1104 35.5234 43.9355 35.1719 44.6777 34.4297L45.9229 27.7061C45.5322 27.0225 44.8779 26.6709 43.96 26.6514C43.0225 26.6318 42.2363 27.0322 41.6016 27.8525C40.9668 28.6631 40.5664 29.7324 40.4004 31.0605C40.3418 31.6758 40.3125 32.1934 40.3125 32.6133ZM60.5713 39C60.4346 38.6191 60.3662 38.1406 60.3662 37.5645C59.2822 38.7559 57.9883 39.332 56.4844 39.293C55.1074 39.2734 53.9648 38.8145 53.0566 37.916C52.1484 37.0176 51.7236 35.9287 51.7822 34.6494C51.8311 32.9307 52.5488 31.6123 53.9355 30.6943C55.3223 29.7666 57.2168 29.3027 59.6191 29.3027L61.2305 29.332L61.4062 28.4385L61.4648 27.6621C61.4258 26.7734 60.9814 26.3145 60.1318 26.2852C59.0771 26.2656 58.4277 26.8467 58.1836 28.0283L53.3496 28.043C53.3984 26.9785 53.7451 26.0557 54.3896 25.2744C55.0342 24.4834 55.9082 23.8779 57.0117 23.458C58.125 23.0283 59.3066 22.8281 60.5566 22.8574C61.7578 22.8867 62.8076 23.1406 63.7061 23.6191C64.6143 24.0879 65.293 24.7471 65.7422 25.5967C66.1914 26.4365 66.3623 27.4082 66.2549 28.5117L65.0684 35.9678L64.9951 36.876C64.9561 37.5986 65.0488 38.2139 65.2734 38.7217L65.2588 39H60.5713ZM57.8174 35.8066C58.8037 35.8457 59.668 35.4111 60.4102 34.5029L60.8936 31.9541L59.6484 31.9395C58.877 31.959 58.2129 32.1885 57.6562 32.6279C57.0996 33.0576 56.7725 33.6484 56.6748 34.4004C56.626 34.8008 56.6992 35.1328 56.8945 35.3965C57.0996 35.6504 57.4072 35.7871 57.8174 35.8066ZM78.6621 27.6182C78.1445 27.54 77.6465 27.4912 77.168 27.4717C75.7227 27.4326 74.6191 27.9307 73.8574 28.9658L72.0703 39H67.251L70.0049 23.1504L74.502 23.1357L74.1357 25.2158C75.1709 23.6143 76.3916 22.8135 77.7979 22.8135C78.1982 22.8135 78.6963 22.8818 79.292 23.0186L78.6621 27.6182Z" fill="#71C9CE"/>
<path d="M79.4678 39L83.1738 17.6719L88.7109 17.6865C90.4492 17.6865 91.9434 18.1211 93.1934 18.9902C94.4531 19.8594 95.3564 21.0605 95.9033 22.5938C96.4502 24.1172 96.6113 25.8262 96.3867 27.7207L96.2402 28.79C95.8105 31.8955 94.6045 34.376 92.6221 36.2314C90.6396 38.0771 88.1494 39 85.1514 39H79.4678ZM85.5176 19.9863L82.6172 36.7002L85.3271 36.7148C87.3975 36.7148 89.1504 36.0703 90.5859 34.7812C92.0312 33.4922 92.9688 31.7246 93.3984 29.4785C93.7402 27.6816 93.8574 26.1533 93.75 24.8936C93.6035 23.3799 93.1006 22.1982 92.2412 21.3486C91.3818 20.4893 90.2295 20.04 88.7842 20.001L85.5176 19.9863ZM108.003 39C107.935 38.7168 107.9 38.4385 107.9 38.165L107.944 37.3301C106.489 38.6777 104.946 39.332 103.315 39.293C101.919 39.2734 100.781 38.834 99.9023 37.9746C99.0332 37.1055 98.6377 36.0215 98.7158 34.7227C98.8135 33.043 99.5459 31.7344 100.913 30.7969C102.29 29.8496 104.097 29.376 106.333 29.376L109.102 29.3906L109.277 28.1309C109.375 27.1836 109.189 26.4365 108.721 25.8896C108.262 25.333 107.568 25.0449 106.641 25.0254C105.732 25.0059 104.927 25.2305 104.224 25.6992C103.53 26.1582 103.105 26.7686 102.949 27.5303L100.283 27.5449C100.371 26.6172 100.732 25.7969 101.367 25.084C102.002 24.3613 102.817 23.8047 103.813 23.4141C104.81 23.0137 105.84 22.8232 106.904 22.8428C108.555 22.8818 109.839 23.3848 110.757 24.3516C111.675 25.3086 112.061 26.583 111.914 28.1748L110.625 36.0264L110.552 37.1543C110.532 37.6914 110.591 38.2236 110.728 38.751L110.698 39H108.003ZM103.843 36.9492C104.692 36.9688 105.493 36.7686 106.245 36.3486C107.007 35.9189 107.661 35.3281 108.208 34.5762L108.779 31.3096L106.772 31.2949C105.103 31.2949 103.823 31.5586 102.935 32.0859C102.046 32.6133 101.543 33.3604 101.426 34.3271C101.338 35.0693 101.509 35.6895 101.938 36.1875C102.378 36.6758 103.013 36.9297 103.843 36.9492ZM115.063 31.0459C115.259 29.4346 115.703 27.9795 116.396 26.6807C117.09 25.3818 117.944 24.4102 118.96 23.7656C119.976 23.1211 121.094 22.8135 122.314 22.8428C124.082 22.8818 125.439 23.5264 126.387 24.7764L127.91 16.5H130.562L126.665 39H124.248L124.526 37.3008C123.276 38.668 121.733 39.332 119.897 39.293C118.433 39.2539 117.266 38.6826 116.396 37.5791C115.527 36.4658 115.059 34.9766 114.99 33.1113C114.961 32.5352 114.985 31.8467 115.063 31.0459ZM117.612 32.5693C117.583 33.9658 117.832 35.0498 118.359 35.8213C118.887 36.5928 119.658 36.9883 120.674 37.0078C122.207 37.0762 123.569 36.3047 124.761 34.6934L126.021 27.3691C125.435 25.9238 124.37 25.1816 122.827 25.1426C121.782 25.1133 120.859 25.4307 120.059 26.0947C119.268 26.749 118.662 27.6719 118.242 28.8633C117.832 30.0449 117.622 31.2803 117.612 32.5693ZM131.616 31.0459C131.812 29.4346 132.256 27.9795 132.949 26.6807C133.643 25.3818 134.497 24.4102 135.513 23.7656C136.528 23.1211 137.646 22.8135 138.867 22.8428C140.635 22.8818 141.992 23.5264 142.939 24.7764L144.463 16.5H147.114L143.218 39H140.801L141.079 37.3008C139.829 38.668 138.286 39.332 136.45 39.293C134.985 39.2539 133.818 38.6826 132.949 37.5791C132.08 36.4658 131.611 34.9766 131.543 33.1113C131.514 32.5352 131.538 31.8467 131.616 31.0459ZM134.165 32.5693C134.136 33.9658 134.385 35.0498 134.912 35.8213C135.439 36.5928 136.211 36.9883 137.227 37.0078C138.76 37.0762 140.122 36.3047 141.313 34.6934L142.573 27.3691C141.987 25.9238 140.923 25.1816 139.38 25.1426C138.335 25.1133 137.412 25.4307 136.611 26.0947C135.82 26.749 135.215 27.6719 134.795 28.8633C134.385 30.0449 134.175 31.2803 134.165 32.5693ZM153.091 35.001L158.73 23.1504H161.66L152.256 41.6367C150.947 44.2051 149.268 45.4746 147.217 45.4453C146.855 45.4355 146.323 45.3477 145.62 45.1816L145.854 42.9844L146.543 43.0576C147.383 43.0967 148.105 42.9062 148.711 42.4863C149.326 42.0762 149.868 41.4072 150.337 40.4795L151.289 38.6631L148.55 23.1504H151.318L153.091 35.001Z" fill="#406C6F"/>
<path fill-rule="evenodd" clip-rule="evenodd" d="M189.25 45.0988L218 28.5L189.25 11.9011L189.25 3.81824L232 28.5L189.25 53.1817L189.25 45.0988Z" fill="#698A8B"/>
<path d="M211 28.5L168.25 53.1817L168.25 3.81827L211 28.5Z" fill="#B9DADD"/>
</svg>
